<?xml version="1.0" encoding="utf-8"?>
<!-- Generator: Adobe Illustrator 25.0.0, SVG Export Plug-In . SVG Version: 6.00 Build 0)  -->
<svg version="1.1" id="Layer_1" xmlns="http://www.w3.org/2000/svg" xmlns:xlink="http://www.w3.org/1999/xlink" x="0px" y="0px"
	 viewBox="0 0 151 31.4" style="enable-background:new 0 0 151 31.4;" xml:space="preserve">
<style type="text/css">
	.st0{fill:#756FC0;}
	.st1{fill:#88D1DF;}
	.st2{fill:#C27CBF;}
</style>
<g>
	<g>
		<path class="st0" d="M29.2,16.1c-0.6,0.8-1.2,1.5-1.7,2.2c-0.3,5.6-4.9,10.1-10.6,10.1c-5.9,0-10.6-4.8-10.6-10.6
			c0-0.3,0-0.5,0-0.8c-0.3-0.8-0.8-1.7-1.5-2.7C4.5,14,4.3,13.6,4,13.2c-0.5,1.4-0.8,3-0.8,4.5c0,7.5,6.1,13.7,13.7,13.7
			s13.7-6.1,13.7-13.7c0-1-0.1-2-0.3-3C29.8,15.2,29.5,15.7,29.2,16.1z"/>
		<path class="st1" d="M7.1,3.6c0-1.5,1.3-2.9,2.8-2.9c1.7-0.1,3,1.2,3.1,2.9c0,1.5-1.2,2.9-2.8,2.9C8.5,6.5,7.2,5.3,7.1,3.6z
			 M19.3,1.1C19.3,1,19.3,1,19.3,1.1C19.3,1,19.3,1,19.3,1.1c-0.1-0.2-0.3-0.4-0.6-0.5C18,0.4,17.4,0.2,16.6,0
			c-0.4,1.5-0.7,3-1.1,4.4C15,5.6,14.6,6.9,13.9,8c-1.3,2.2-3.1,2.7-5.2,1.2C6.8,7.7,5.2,6,3.4,4.4C3,4.1,2.7,3.6,2.2,3.1
			C1.5,3.8,0.6,4.6,0,5.3C-0.1,5.4,0.5,5.8,0.8,6c2.9,2.3,5.6,4.8,7.8,7.9c1.2,1.8,2,4.1,2,6.4c0.6,2.1,2.1,3.7,4,4.5
			c1.1-1.7,2-5.2,2.1-7.1c0.2-2.4,0.1-4.8,0.5-7.1c0.1-0.6,2-8,2.1-8.6c0-0.1,0-0.1,0.1-0.2C19.4,1.4,19.4,1.2,19.3,1.1z"/>
		<path class="st2" d="M22,6.6c0-1.4,1.2-2.5,2.6-2.5c1.3,0,2.5,1.3,2.4,2.5c0,1.4-1.2,2.5-2.7,2.5C23.1,9.1,21.9,7.9,22,6.6z
			 M32.2,5.7c-0.4,0.4-1.6,1.2-1.9,1.6c-1.5,1.4-3,2.8-4.6,4.1c-1.8,1.3-3.3,0.9-4.5-1c-0.6-0.9-1-2-1.3-3.1
			c-0.2-0.7-0.5-1.5-0.6-2.8c-0.1,0.2-0.1,0.4-0.2,0.7c-0.4,1.7-1,3.9-1.2,4.9c0.2,0.8,0.4,1.7,0.5,2.5c0.3,2,0.3,4.1,0.4,6.2
			c0.1,1.1,0.8,4.2,1.4,5.7c1.9-1.1,3.3-3.2,4-5.6c0,0,0-0.1,0-0.1c0.3-1.1,0.9-2.2,1.6-3.2c1.8-2.7,4.2-4.8,6.7-6.9
			c0.2-0.2,1.4-1.2,1.3-1.3C33.4,6.8,32.8,6.3,32.2,5.7z"/>
	</g>
	<g>
		<path class="st0" d="M44.5,13.5L44.5,13.5c0.8-1.4,1.7-2.1,3.1-2.1c0.4,0,0.6,0,0.8,0.1v2.9h-0.1c-2.1-0.2-3.7,0.9-3.7,3.5v6h-3.3
			V11.5h3.2V13.5z"/>
		<path class="st0" d="M57.5,22.5L57.5,22.5c-0.7,0.9-1.6,1.7-3.7,1.7c-2.5,0-4.3-1.3-4.3-3.8c0-2.7,2.2-3.6,5-4
			c2.1-0.3,3-0.5,3-1.4c0-0.9-0.7-1.5-2.1-1.5c-1.5,0-2.3,0.6-2.4,1.7h-2.9c0.1-2.2,1.7-4.1,5.3-4.1c3.7,0,5.2,1.7,5.2,4.6V22
			c0,0.9,0.1,1.5,0.4,1.7v0.1h-3.2C57.7,23.6,57.6,23,57.5,22.5z M57.5,19.5v-1.9c-0.6,0.3-1.5,0.5-2.3,0.7
			c-1.7,0.4-2.6,0.8-2.6,1.9s0.8,1.6,1.9,1.6C56.5,21.9,57.5,20.7,57.5,19.5z"/>
		<path class="st0" d="M62.6,11.5h1.7v-1.1c0-3,2.3-4.1,5.5-3.7v2.5c-1.5-0.1-2.2,0.1-2.2,1.4v0.9h2.2v2.3h-2.2v10.1h-3.3V13.8h-1.7
			V11.5z M71.2,6.6h3.3v2.9h-3.3V6.6z M71.2,11.5h3.3v12.4h-3.3V11.5z"/>
		<path class="st0" d="M81.9,18.2l-1.4,1.5v4.2h-3.3V6.6h3.3v9.6l4.4-4.7h3.9l-4.6,4.7l5.1,7.7h-4L81.9,18.2z"/>
		<path class="st0" d="M91,6.6h3.3v2.9H91V6.6z M91,11.5h3.3v12.4H91V11.5z"/>
		<path class="st0" d="M96.5,19.8h2c0.3,2.2,1.7,2.8,3.6,2.8c2.1,0,2.9-0.9,2.9-2.1c0-1.4-1-1.8-3.3-2.2c-2.5-0.5-4.7-1-4.7-3.7
			c0-2.1,1.6-3.4,4.5-3.4c3.1,0,4.6,1.5,4.9,3.9h-2c-0.2-1.6-1.1-2.4-2.9-2.4c-1.8,0-2.5,0.8-2.5,1.8c0,1.4,1.2,1.6,3.4,2.1
			c2.5,0.5,4.6,1.1,4.6,3.9c0,2.5-2.1,3.8-4.9,3.8C98.6,24.2,96.7,22.6,96.5,19.8z"/>
		<path class="st0" d="M117.2,22.1L117.2,22.1c-0.8,1-2.1,2-4.2,2c-2.4,0-4.2-1.1-4.2-3.5c0-2.9,2.3-3.5,5.4-4c1.8-0.3,3-0.4,3-1.8
			c0-1.4-1-2.2-2.8-2.2c-2,0-3,0.9-3.1,2.8h-1.9c0.1-2.4,1.7-4.2,5-4.2c2.7,0,4.6,1,4.6,4V21c0,1,0.2,1.6,1.3,1.3h0.1v1.4
			c-0.2,0.1-0.6,0.2-1.1,0.2C118.1,24,117.4,23.4,117.2,22.1z M117.2,19.3v-2.1c-0.7,0.4-1.8,0.7-2.8,0.9c-2,0.4-3.5,0.7-3.5,2.5
			c0,1.7,1.3,2,2.6,2C116,22.6,117.2,20.7,117.2,19.3z"/>
		<path class="st0" d="M121,11.4h2.1l2.2,7.7c0.3,1,0.7,2.7,0.7,2.7h0c0,0,0.4-1.6,0.6-2.6l2.1-7.7h2l2,7.7c0.3,1,0.6,2.6,0.6,2.6h0
			c0,0,0.4-1.6,0.7-2.7l2.3-7.7h2l-4.1,12.5h-2l-2.1-7.6c-0.3-1-0.6-2.6-0.6-2.6h0c0,0-0.3,1.6-0.6,2.6l-2.1,7.6h-2L121,11.4z"/>
		<path class="st0" d="M147.8,22.1L147.8,22.1c-0.8,1-2.1,2-4.2,2c-2.4,0-4.2-1.1-4.2-3.5c0-2.9,2.3-3.5,5.4-4c1.8-0.3,3-0.4,3-1.8
			c0-1.4-1-2.2-2.8-2.2c-2,0-3,0.9-3.1,2.8H140c0.1-2.4,1.7-4.2,5-4.2c2.7,0,4.6,1,4.6,4V21c0,1,0.2,1.6,1.3,1.3h0.1v1.4
			c-0.2,0.1-0.6,0.2-1.1,0.2C148.7,24,148,23.4,147.8,22.1z M147.8,19.3v-2.1c-0.7,0.4-1.8,0.7-2.8,0.9c-2,0.4-3.5,0.7-3.5,2.5
			c0,1.7,1.3,2,2.6,2C146.7,22.6,147.8,20.7,147.8,19.3z"/>
	</g>
</g>
</svg>
