<?xml version="1.0" encoding="utf-8"?>
<!-- Generator: Adobe Illustrator 25.0.0, SVG Export Plug-In . SVG Version: 6.00 Build 0)  -->
<svg version="1.1" id="Layer_1" xmlns="http://www.w3.org/2000/svg" xmlns:xlink="http://www.w3.org/1999/xlink" x="0px" y="0px"
	 viewBox="0 0 113.2 46.9" style="enable-background:new 0 0 113.2 46.9;" xml:space="preserve">
<style type="text/css">
	.st0{fill:#FFFFFF;}
	.st1{fill:#2DBCC8;}
	.st2{fill:#61DF29;}
</style>
<path class="st0" d="M59.3,20.5h2.8c0.2,1.3,1.2,1.9,2.5,1.9c1.4,0,2.1-0.5,2.1-1.3c0-1.1-1.5-1.2-3.1-1.5c-2.1-0.4-4.1-1-4.1-3.5
	s2.1-3.7,4.7-3.7c3.1,0,4.8,1.5,5,3.8h-2.8c-0.1-1.2-0.9-1.7-2.2-1.7c-1.2,0-2,0.5-2,1.3c0,1,1.5,1.1,3.2,1.4
	c1.9,0.4,4.1,0.9,4.1,3.7c0,2.3-2,3.7-4.9,3.7C61.3,24.6,59.5,22.9,59.3,20.5z M70.5,18.4c0-3.5,2.5-6.1,6.1-6.1s6.1,2.7,6.1,6.1
	s-2.5,6.1-6.1,6.1C73,24.6,70.5,21.9,70.5,18.4z M79.5,18.4c0-2.3-1.1-3.8-2.9-3.8c-1.9,0-2.9,1.5-2.9,3.8s1,3.8,2.9,3.8
	C78.5,22.2,79.5,20.7,79.5,18.4z M84.1,12.6h3v1.6h0.1c0.6-1.1,1.8-1.9,3.4-1.9c1.5,0,2.6,0.8,3.2,2l0,0c0.8-1.3,2-2,3.5-2
	c2.4,0,3.8,1.6,3.8,4.1v7.8H98v-7.3c0-1.3-0.7-2-1.8-2c-1.3,0-2.1,1-2.1,2.5v6.7H91v-7.3c0-1.3-0.7-2-1.8-2c-1.2,0-2.1,1-2.1,2.5V24
	H84L84.1,12.6L84.1,12.6z M109.9,22.9L109.9,22.9c-0.6,0.9-1.5,1.6-3.5,1.6c-2.4,0-4.1-1.2-4.1-3.6c0-2.6,2.1-3.4,4.7-3.7
	c1.9-0.3,2.8-0.4,2.8-1.3c0-0.8-0.7-1.4-1.9-1.4c-1.4,0-2.1,0.5-2.2,1.6H103c0.1-2,1.6-3.8,5-3.8c3.5,0,4.9,1.6,4.9,4.3v5.9
	c0,0.9,0.1,1.4,0.4,1.6v0.1h-3C110.1,24,110,23.5,109.9,22.9z M109.9,20.1v-1.7c-0.5,0.3-1.4,0.5-2.1,0.7c-1.6,0.4-2.4,0.7-2.4,1.8
	s0.7,1.5,1.8,1.5C108.9,22.4,109.9,21.3,109.9,20.1z"/>
<path class="st0" d="M59.4,37h1.4c0.2,2,1.6,2.8,3.4,2.8c1.9,0,3-0.9,3-2.3c0-1.3-0.7-1.7-3.1-2.3c-2.4-0.5-4.3-1.1-4.3-3.4
	c0-1.9,1.7-3.2,4.1-3.2c2.8,0,4.1,1.4,4.3,3.5h-1.4c-0.2-1.5-1.2-2.3-2.9-2.3c-1.8,0-2.7,0.9-2.7,1.9c0,1.3,1.1,1.7,3.3,2.2
	c2.4,0.5,4.1,1.1,4.1,3.5c0,2.1-1.7,3.5-4.4,3.5C61.1,41,59.6,39.3,59.4,37z M69.8,37.7c0-2.8,2.2-3.3,4.8-3.7
	c2.3-0.3,3.1-0.4,3.1-1.6v-0.2c0-1.6-1-2.4-2.8-2.4c-2.1,0-3.2,0.9-3.3,2.6h-1.4c0.2-2.3,1.7-3.7,4.7-3.7c2.6,0,4.1,1.1,4.1,3.6v6.4
	c0,0.7,0.3,1,0.8,1c0.2,0,0.3,0,0.5-0.1h0.1v1c-0.2,0.1-0.5,0.2-1,0.2c-1,0-1.7-0.5-1.7-1.7v-0.2h-0.1c-0.7,0.9-1.9,2-4.1,2
	C71.5,41,69.8,39.9,69.8,37.7z M77.8,36.5v-2.1c-0.7,0.4-1.9,0.6-3,0.8c-2,0.3-3.5,0.6-3.5,2.6c0,1.6,1.2,2.1,2.6,2.1
	C76.5,39.8,77.8,38.1,77.8,36.5z M80.4,29h1.5l2,7.2c0.3,1.2,0.7,3.1,0.7,3.1l0,0c0,0,0.5-1.9,0.7-2.9l2-7.4h1.5l1.9,7.4
	c0.3,1.1,0.7,2.9,0.7,2.9l0,0c0,0,0.5-1.9,0.8-3.1l2.2-7.2H96l-3.7,11.7h-1.5l-2-7.5c-0.3-1.1-0.6-2.6-0.6-2.6l0,0
	c0,0-0.3,1.5-0.6,2.6l-2.1,7.5h-1.6L80.4,29z M96.3,37.7c0-2.8,2.2-3.3,4.8-3.7c2.3-0.3,3.1-0.4,3.1-1.6v-0.2c0-1.6-1-2.4-2.8-2.4
	c-2.1,0-3.2,0.9-3.3,2.6h-1.4c0.2-2.3,1.7-3.7,4.7-3.7c2.6,0,4.1,1.1,4.1,3.6v6.4c0,0.7,0.3,1,0.8,1c0.2,0,0.3,0,0.5-0.1h0.1v1
	c-0.2,0.1-0.5,0.2-0.9,0.2c-1,0-1.7-0.5-1.7-1.7v-0.2h-0.1c-0.7,0.9-1.9,2-4.1,2C98,41,96.3,39.9,96.3,37.7z M104.3,36.5v-2.1
	c-0.7,0.4-1.9,0.6-3,0.8c-2,0.3-3.5,0.6-3.5,2.6c0,1.6,1.2,2.1,2.6,2.1C102.9,39.8,104.3,38.1,104.3,36.5z"/>
<path class="st1" d="M19.2,13.3c3.7,0,6.7-3,6.7-6.7s-3-6.7-6.7-6.7s-6.7,3-6.7,6.7C12.6,10.3,15.6,13.3,19.2,13.3z"/>
<path class="st2" d="M34.1,13.3c2.4,0,4.4-2,4.4-4.4s-2-4.4-4.4-4.4s-4.4,2-4.4,4.4C29.8,11.4,31.7,13.3,34.1,13.3z"/>
<path class="st0" d="M50,13.4c-0.3,0.1-0.6,0.2-0.9,0.3c-5.7,3-11.5,5.9-17.2,8.9c-2.3,1.2-4.2,2.9-5.5,5c-1.3-2.1-3.2-3.8-5.5-5
	c-5.7-3-11.5-6-17.2-8.9c-0.3-0.1-0.6-0.3-0.9-0.3C1,13-0.4,14.7,0.2,16.6c1.7,5.3,3.4,10.7,5,16c0.3,1,0.9,1.7,1.8,2.2
	c4.3,2.2,8.5,4.3,12.8,6.5l0,0c0.4,0.2,0.7,0.4,1.1,0.6c2.3,1.2,4.2,2.9,5.5,5c1.2-1.9,2.8-3.4,4.8-4.6l0,0l0,0
	c0.2-0.1,0.5-0.3,0.7-0.4c0.1-0.1,0.2-0.1,0.4-0.2c4.5-2.3,9-4.6,13.5-6.9c0.9-0.5,1.5-1.2,1.8-2.2c1.7-5.3,3.4-10.7,5-16
	C53.2,14.8,51.8,13,50,13.4z M9.5,30.3c-0.9-2.8-1.8-5.7-2.7-8.5c-0.1-0.4-0.3-0.7-0.4-1.2c0.3,0.1,0.5,0.1,0.6,0.2
	c3.9,2,7.7,4,11.6,6.1s6,6.2,5.3,10.6c-0.1,0.8-0.2,0.9-1,0.5c-4.3-2.3-8.5-4.5-12.7-6.8C9.8,30.9,9.6,30.6,9.5,30.3z M46,21.8
	c-0.9,2.8-1.8,5.7-2.7,8.5c-0.1,0.3-0.4,0.6-0.7,0.8c-4.2,2.3-8.5,4.5-12.7,6.8c-0.7,0.4-0.8,0.3-1-0.5c-0.7-4.3,1.4-8.5,5.3-10.6
	c3.8-2,7.7-4,11.6-6.1c0.2-0.1,0.4-0.1,0.6-0.2C46.2,21.1,46.1,21.4,46,21.8z"/>
<path class="st1" d="M111,40.8c0.9,0,1.7-0.7,1.7-1.7c0-0.9-0.7-1.7-1.7-1.7c-0.9,0-1.7,0.7-1.7,1.7S110,40.8,111,40.8z"/>
</svg>
