<?xml version="1.0" encoding="utf-8"?>
<!-- Generator: Adobe Illustrator 25.0.0, SVG Export Plug-In . SVG Version: 6.00 Build 0)  -->
<svg version="1.1" id="Layer_1" xmlns="http://www.w3.org/2000/svg" xmlns:xlink="http://www.w3.org/1999/xlink" x="0px" y="0px"
	 viewBox="0 0 531.4 144" style="enable-background:new 0 0 531.4 144;" xml:space="preserve">
<style type="text/css">
	.st0{fill:#8B8B8B;}
	.st1{fill:#FCA249;}
	.st2{fill:#28234B;}
</style>
<polygon class="st0" points="93.5,88.7 93.5,88.7 93.5,88.7 93.5,88.7 "/>
<path class="st0" d="M54.7,49.8C54.8,49.8,54.8,49.8,54.7,49.8C54.8,49.9,54.7,49.9,54.7,49.8C54.7,49.9,54.7,49.9,54.7,49.8
	C54.7,49.8,54.7,49.8,54.7,49.8z"/>
<path class="st0" d="M59.2,96C59.2,96.1,59.2,96.1,59.2,96C59.2,96.1,59.2,96.1,59.2,96C59.2,96.1,59.2,96.1,59.2,96
	C59.1,96.1,59.2,96,59.2,96z"/>
<path class="st0" d="M54.2,91.1C54.2,91.1,54.2,91.1,54.2,91.1C54.2,91.1,54.1,91.1,54.2,91.1C54.1,91.1,54.1,91.1,54.2,91.1
	C54.1,91.1,54.1,91.1,54.2,91.1z"/>
<path class="st0" d="M53.4,91.1C53.4,91.1,53.4,91.1,53.4,91.1C53.4,91.1,53.4,91.1,53.4,91.1C53.4,91.1,53.4,91.1,53.4,91.1
	c-0.1,0-0.1-0.1-0.2-0.2c0.1,0,0.1-0.1,0.2-0.1c0,0-0.1-0.1,0-0.1c0,0,0.1,0,0.1,0c0.1-0.1,0.2-0.3,0.3-0.5
	C53.8,90.7,53.7,91,53.4,91.1C53.4,91.1,53.4,91.1,53.4,91.1z"/>
<path class="st0" d="M53.8,91.2c0.1,0,0.2,0,0.3,0.2c-0.1,0-0.2,0.1-0.3,0.1C53.7,91.3,53.7,91.2,53.8,91.2z"/>
<g>
	<path class="st1" d="M61.4,76c-2.4-2.9-4.2-6.6-4.6-10.1c-0.5-4.3,3.4-10.5,9.6-8.3c3.7,1.3,6.5,4.5,7.3,7.7
		c-0.6-2.7,5.1-6.9,7.9-7.7c3.7-1.1,7.2,0.1,8.5,3.2c3.5,8.5-4.1,17.7-11.3,23.3c-4.9,3.8-8.3,0.3-11.9-2.7
		C64.8,79.8,62.9,78,61.4,76z"/>
</g>
<path class="st2" d="M64.9,9.7c0.9-4.8,5.5-8.1,10.5-7.2c5.4,1,8.8,5.7,7.8,11.1c-1,5-5.9,8-10.9,7C66.7,19.4,63.9,15.1,64.9,9.7z
	 M26.2,56.7c2.5-4.4,1.2-10.1-3.3-12.5c-4.8-2.7-10.3-0.9-13,3.9c-2.4,4.4-0.7,9.8,3.6,12.2C18.4,63,23.4,61.7,26.2,56.7z
	 M46.3,111.5c-3.4-3.8-9.2-4.2-13-0.8c-4.1,3.8-4,9.5-0.3,13.5c3.5,3.7,9.1,3.7,12.7,0.4C49.8,120.8,50.1,115.7,46.3,111.5z
	 M104.8,109.5c-4.7,2.1-6.9,7.4-4.7,12.1c2.3,5,7.8,6.8,12.8,4.4c4.6-2.2,6.4-7.5,4.3-12C114.8,109,110,107.2,104.8,109.5z
	 M120.9,53.4c0.6,5.1,4.9,8.8,10,8.2c5.5-0.7,8.9-5.3,8.2-10.8c-0.6-5-5.2-8.4-10.1-7.8C123.5,43.7,120.2,47.7,120.9,53.4z"/>
<path class="st2" d="M105.6,10c0.1,0.6-0.2,1.1-0.7,2.1c-0.1,0.2-13.4,25-14.3,26.9c-1.1,2.2-1.9,3.6-3.1,6c-0.1,0-0.2-0.1-0.3-0.1
	c-3.9-2-8.4-3.2-13.1-3.2c0,0,0,0,0,0c0,0,0,0,0,0c0,0,0,0-0.1,0c0,0,0,0-0.1,0c-0.2,0-0.3,0-0.5,0c-0.3,0-0.6,0-1,0
	c-0.4,0-0.8,0.1-1.2,0.1c-0.1,0-0.1,0-0.2,0c-3.8,0.4-7.4,1.5-10.6,3.2c-0.4-0.7-4.7-8.2-3.3-9.1c0.9-0.6,6.5-2.9,9.5-3.6
	c2.4-0.5,6.3-0.7,7.2-0.7c3.5,0.1,6,0.5,9.4-3.1c2.9-3.1,5.3-6.7,7.4-10.4c2.5-4.3,4.5-8.8,6.9-13.6c2.5,1.3,4.5,2.4,6.4,3.5
	c1,0.5,1.6,1.1,1.7,1.9c0,0,0,0,0,0C105.6,9.9,105.6,10,105.6,10z M26.3,21.7C26.3,21.7,26.3,21.7,26.3,21.7
	c-0.8-0.1-1.5,0.3-2.3,1.1c-1.6,1.5-3.2,3.1-5.3,5c3.8,3.7,7.5,7,10.8,10.7c2.8,3.2,5.5,6.5,7.6,10.2c2.4,4.4,1.3,6.6,0.1,9.9
	c-0.3,0.8-1.3,4.7-1.5,7.1c-0.3,3.1,0.2,9.1,0.5,10.1c0.4,1.6,8.9-0.2,9.7-0.4c-0.6-3.6-0.6-7.3,0.2-11.1c0-0.1,0-0.1,0-0.2
	c0.1-0.4,0.2-0.8,0.3-1.2c0.1-0.3,0.2-0.6,0.3-0.9c0-0.2,0.1-0.3,0.1-0.5c0,0,0,0,0-0.1c0,0,0,0,0-0.1c0,0,0,0,0,0c0,0,0,0,0,0
	c1.5-4.5,3.9-8.4,7.1-11.5c0.1-0.1,0.1-0.1,0.2-0.2c-1.9-1.9-3-3.2-4.8-4.8c-1.5-1.4-21-21.7-21.1-21.9C27.4,22.3,27,21.8,26.3,21.7
	C26.4,21.7,26.4,21.7,26.3,21.7z M13,100.5C13,100.5,13,100.5,13,100.5c-0.3,0.7-0.2,1.5,0.3,2.5c0.9,2,1.9,4,3.2,6.6
	c4.7-2.4,9-5,13.5-6.9c3.9-1.7,7.9-3.2,12.1-4c4.9-0.9,6.7,0.8,9.4,3c0.7,0.5,4,2.7,6.2,3.7c2.8,1.2,8.7,2.6,9.8,2.7
	c1.6,0.1,2.5-8.5,2.6-9.3c-3.6-0.5-7.2-1.7-10.5-3.6c-0.1,0-0.1-0.1-0.2-0.1c-0.3-0.2-0.7-0.4-1-0.6c-0.3-0.2-0.5-0.4-0.8-0.5
	c-0.1-0.1-0.3-0.2-0.4-0.3c0,0,0,0,0,0c0,0,0,0,0,0c0,0,0,0,0,0c0,0,0,0,0,0c-3.8-2.8-6.8-6.3-8.8-10.3c-0.1-0.1-0.1-0.2-0.2-0.2
	c-2.4,1.2-3.9,1.9-6.1,3c-1.8,1-27.2,13.2-27.4,13.3C13.9,99.7,13.4,99.9,13,100.5C13.1,100.4,13,100.5,13,100.5z M84,137.8
	C84.1,137.8,84.1,137.8,84,137.8c0.6,0.5,1.4,0.6,2.5,0.5c2.2-0.3,4.4-0.6,7.2-1c-0.9-5.2-1.9-10.1-2.4-15
	c-0.4-4.2-0.6-8.5-0.1-12.7c0.6-5,2.9-6.1,5.7-8.1c0.7-0.5,3.8-3,5.4-4.8c2.1-2.3,5.2-7.5,5.6-8.5c0.6-1.5-7.3-5-8-5.4
	c-1.6,3.3-3.8,6.3-6.7,8.8c-0.1,0-0.1,0.1-0.2,0.1c-0.3,0.3-0.6,0.5-0.9,0.8c-0.2,0.2-0.5,0.4-0.8,0.6c-0.1,0.1-0.3,0.2-0.4,0.3
	c0,0,0,0,0,0c0,0,0,0,0,0c0,0,0,0,0,0c0,0,0,0,0,0c-3.8,2.8-8.1,4.5-12.5,5.1c-0.1,0-0.2,0-0.3,0.1c0.4,2.6,0.6,4.3,1,6.7
	c0.3,2,4.2,29.9,4.2,30.1c0.2,1.1,0.2,1.7,0.6,2.1C84,137.7,84,137.7,84,137.8z M141.3,81.8C141.3,81.8,141.3,81.8,141.3,81.8
	c0.7-0.4,1-1.1,1.2-2.2c0.4-2.2,0.8-4.4,1.3-7.2c-5.2-0.8-10.2-1.3-15-2.3c-4.1-0.9-8.3-2-12.1-3.8c-4.5-2.1-5-4.6-5.9-8
	c-0.3-0.8-1.7-4.5-2.9-6.6c-1.6-2.7-5.5-7.2-6.4-7.9c-1.2-1-7.1,5.4-7.6,6c2.6,2.5,4.8,5.6,6.3,9.1c0,0.1,0.1,0.1,0.1,0.2
	c0.2,0.4,0.3,0.7,0.5,1.1c0.1,0.3,0.2,0.6,0.3,0.9c0.1,0.2,0.1,0.3,0.2,0.5c0,0,0,0,0,0.1c0,0,0,0,0,0.1c0,0,0,0,0,0c0,0,0,0,0,0
	c1.5,4.5,1.7,9.1,1,13.5c0,0.1,0,0.2,0,0.3c2.6,0.4,4.3,0.8,6.7,1.1c2,0.3,29.8,5.2,30,5.3c1.1,0.2,1.7,0.3,2.2,0.1
	C141.3,81.8,141.3,81.8,141.3,81.8z"/>
<g>
	<path class="st1" d="M48.6,20.4c-0.4,2.2,1,4.4,3.2,4.8c2.2,0.4,4.4-1,4.8-3.2c0.4-2.2-1-4.4-3.2-4.8C51.2,16.7,49,18.2,48.6,20.4z
		 M41.2,7.4c-0.3,1.4,0.6,2.7,2,3c1.4,0.3,2.7-0.6,3-2c0.3-1.4-0.6-2.7-2-3C42.8,5.1,41.5,6,41.2,7.4z M18.7,79.2
		c2,1.1,4.5,0.4,5.6-1.6c1.1-2,0.4-4.5-1.6-5.6c-2-1.1-4.5-0.4-5.6,1.6S16.7,78.1,18.7,79.2z M4,82.2c1.2,0.7,2.8,0.3,3.5-1
		c0.7-1.2,0.3-2.8-1-3.5c-1.2-0.7-2.8-0.3-3.5,1C2.3,79.9,2.8,81.5,4,82.2z M65.3,125.6c1.7-1.5,1.8-4.1,0.2-5.8
		c-1.5-1.7-4.1-1.8-5.8-0.2c-1.7,1.5-1.8,4.1-0.2,5.8S63.7,127.1,65.3,125.6z M63.6,140.4c1-1,1.1-2.6,0.1-3.6c-1-1-2.6-1.1-3.6-0.1
		c-1,1-1.1,2.6-0.1,3.6C61,141.3,62.6,141.4,63.6,140.4z M124.1,95.8c-0.9-2.1-3.4-3-5.4-2c-2.1,0.9-3,3.4-2,5.4s3.4,3,5.4,2
		S125,97.8,124.1,95.8z M137.7,102c-0.6-1.3-2.1-1.8-3.4-1.2s-1.8,2.1-1.2,3.4c0.6,1.3,2.1,1.8,3.4,1.2S138.3,103.2,137.7,102z
		 M113.7,30.8c-2.2,0.3-3.9,2.3-3.6,4.5c0.3,2.2,2.3,3.9,4.5,3.6c2.2-0.3,3.9-2.3,3.6-4.5C118,32.1,116,30.5,113.7,30.8z
		 M123.9,19.8c-1.4,0.2-2.4,1.4-2.2,2.8c0.2,1.4,1.4,2.4,2.8,2.2s2.4-1.4,2.2-2.8S125.2,19.6,123.9,19.8z"/>
</g>
<g>
	<path class="st2" d="M182.3,46.2c4.8,0.4,7.8,2.8,9.6,6.8c1.6-3.9,4.5-6.7,9.3-6.7c2.2,0,3.4,0.3,4.9,0.6c0,2.8-1,7.7-2.9,10.9
		c-1.3-0.4-2.5-0.6-3.8-0.7c-2.7,0-4.6,1.3-6.1,3.8V84c-1.6,0.3-3.8,0.4-5.8,0.4c-1.9,0-4.1-0.1-5.8-0.4V59.9c0-4.4-1.6-6.9-2.8-7.8
		C179.2,50.1,180.8,47.3,182.3,46.2z"/>
	<path class="st2" d="M238,84.6c-3.8-0.1-6.4-1.8-8.1-4c-2.6,2.5-6,4.5-10.9,4.5c-7.7,0-11.3-6-11.3-11.3c0-9,7.1-12.9,14.8-12.9
		c1.3,0,3.4,0,5.3,0.1v-1.4c0-3.1-1.5-4.7-4.9-4.7c-3.2,0-7.1,1.2-11,2.4c-1.6-1.9-2.5-5.2-2.8-8.1c5-2,12.2-3.3,17.1-3.3
		c6.5,0,13.3,3.3,13.3,12.8v15.2c0,2.2,0.6,3.8,2.1,4.9C241.1,80.6,239.4,83.5,238,84.6z M227.7,74.4v-6c-1.5-0.1-3-0.1-4-0.1
		c-3.4,0-4.7,1.9-4.7,4.8c0,2,1.3,3.5,3.4,3.5C224.1,76.5,226,75.8,227.7,74.4z"/>
	<path class="st2" d="M250.3,54.9l-6.4,0.1c-0.3-1.3-0.4-2.9-0.4-4.3c0-1.3,0.1-2.8,0.4-4l5.8,0.1c-0.2-1.6-0.4-3.3-0.4-5
		c0-7.4,5.2-13,13-13c4.7,0,8.9,1.1,11.5,2.1c0.1,2.6-1,6.1-2.5,7.7c-1.5-0.4-3.7-1-5.7-1c-3.2,0-5,1.7-5,5.2c0,1.3,0.1,2.7,0.3,4.2
		l9.8-0.1c0.3,1.3,0.4,2.8,0.4,4c0,1.3-0.1,3-0.4,4.3l-9-0.1V84c-1.7,0.3-3.8,0.4-5.7,0.4c-1.9,0-3.8-0.1-5.6-0.4V54.9z"/>
	<path class="st2" d="M292.2,84c-1.6,0.3-3.9,0.4-5.9,0.4c-1.9,0-4.1-0.1-5.8-0.4V59.3c0-2.5-0.9-4.3-3.5-4.3h-1.1
		c-0.4-1.3-0.4-2.5-0.4-4c0-1.3,0.1-2.8,0.4-4.2c2.3-0.2,4.9-0.4,6.6-0.4h1.6c4.9,0,8.1,3.4,8.1,8.9V84z M279.2,31.7
		c1.3-0.7,3.5-1.2,5.5-1.2c2,0,4.4,0.5,5.5,1.2c0.6,1.3,0.9,3,0.9,4.3s-0.3,3-0.9,4.3c-1.1,0.6-3.5,1.1-5.5,1.1
		c-2,0-4.4-0.4-5.5-1.1c-0.6-1.3-0.9-3-0.9-4.3C278.3,34.7,278.6,33.1,279.2,31.7z"/>
	<path class="st2" d="M331.5,74.6c0.8,2.6,1.5,4.9,3.6,6.3c-1.9,2.1-4.9,3.7-7.8,3.7c-3.4,0-4.7-1.4-6-5.2L319,73
		c-1-3.2-2.2-3.9-4.3-3.9c-0.9,0-1.6,0-2.3,0.1V84c-1.6,0.3-3.7,0.4-5.7,0.4c-1.9,0-4-0.1-5.6-0.4V29.6l0.5-0.5h4.5
		c4.6,0,6.3,1.8,6.3,7v23.4h1.2c1,0,1.5-0.2,2.1-1.3l3.9-7.5c1.4-2.8,3.4-4.3,6.6-4.3c2.5,0,4.3,0.1,6.5,0.1l0.4,0.6l-5.7,11.1
		c-1,1.9-2.2,3.3-3.8,4.4c2.8,1,5,3.1,6.1,6.4L331.5,74.6z"/>
	<path class="st2" d="M353.2,84c-1.6,0.3-3.9,0.4-5.9,0.4c-1.9,0-4.1-0.1-5.8-0.4V59.3c0-2.5-0.9-4.3-3.5-4.3h-1.1
		c-0.4-1.3-0.4-2.5-0.4-4c0-1.3,0.1-2.8,0.4-4.2c2.3-0.2,4.9-0.4,6.6-0.4h1.6c4.9,0,8.1,3.4,8.1,8.9V84z M340.1,31.7
		c1.3-0.7,3.5-1.2,5.5-1.2c2,0,4.4,0.5,5.5,1.2c0.6,1.3,0.9,3,0.9,4.3s-0.3,3-0.9,4.3c-1.1,0.6-3.5,1.1-5.5,1.1
		c-2,0-4.4-0.4-5.5-1.1c-0.6-1.3-0.9-3-0.9-4.3C339.2,34.7,339.5,33.1,340.1,31.7z"/>
	<path class="st2" d="M362.3,75.9c3.1,1.7,7,3.3,10.5,3.3c4.1,0,6.6-1.9,6.7-4.6c0-2.1-1.6-4-4.7-5.1l-4.2-1.6
		c-5.2-1.9-9.5-5-9.5-10.7c0-6.9,5.7-11.1,13.1-11.1c4,0,9.1,1.3,12.2,2.7c0,1.9-0.9,4.5-2.3,5.7c-2.5-1.2-6.3-2.5-9.9-2.5
		c-3.3,0-5.4,1.8-5.4,4.3c0,2.2,1.5,3.4,4.6,4.6l4.5,1.7c5.5,2.1,9.5,5.5,9.5,11.2c0,6.9-5.9,11.1-14.3,11.1
		c-5.5,0-10.2-1.8-13.4-3.7C359.9,79.5,361,77.1,362.3,75.9z"/>
	<path class="st2" d="M421.7,84.5c-3.1-0.6-5-2.3-6-4.6c-2.7,2.6-6.5,5.1-11.3,5.1c-7.5,0-11.1-5.7-11.1-11
		c0-8.5,6.2-12.4,14.3-12.4c2,0,4.7,0.1,7.2,0.5v-2.9c0-4.7-2.2-6.6-6.1-6.6c-3.7,0-7.8,1.3-11.7,2.8c-1.3-1.2-2.2-3.7-2.2-5.6
		c4.2-1.9,10.5-3.4,15.5-3.4c7.4,0,12.2,4,12.2,12.5v15.3c0,2.8,0.4,4.9,2.1,6.4C424.2,82,423,83.8,421.7,84.5z M414.9,74.4v-7.1
		c-2.2-0.2-4.6-0.3-6.7-0.3c-4.5,0-7.1,2.4-7.1,6.4c0,3.1,1.8,5.5,5,5.5C408.9,78.9,412.2,77.4,414.9,74.4z"/>
	<path class="st2" d="M428.9,47.6c1.8-0.8,3.2-1,4.6-1c2,0,3.1,0.9,3.6,3.1l3.4,15.5c1,4.6,1.9,9.6,2.5,12.4
		c0.1,0.5,0.2,0.6,0.6,0.6l6.3-30.9c1.2-0.3,3.5-0.4,4.6-0.4c1.1,0,3.5,0.1,4.6,0.4l6.1,30.3c0.1,0.5,0.1,0.6,0.6,0.6
		c0.8-4.3,1.7-8.6,2.7-13l4-18.1c0.9-0.2,2.2-0.3,3.3-0.3c1.3,0,2.9,0.1,3.9,0.6l0.2,0.4l-9,36.3c-1.6,0.2-4,0.3-5.8,0.3
		c-3,0-4.7-0.5-5.4-4.2l-2.2-10.4l-2.8-15.5h-0.4c-1,5.4-2.2,11.6-3.1,15.5l-3,14.3c-1.7,0.2-4.3,0.4-6.2,0.4
		c-2.6,0-4.3-0.7-5.2-4.3L428.9,47.6z"/>
	<path class="st2" d="M512,84.5c-3.1-0.6-5-2.3-6-4.6c-2.7,2.6-6.5,5.1-11.3,5.1c-7.5,0-11.1-5.7-11.1-11c0-8.5,6.2-12.4,14.3-12.4
		c2,0,4.7,0.1,7.2,0.5v-2.9c0-4.7-2.2-6.6-6.1-6.6c-3.7,0-7.8,1.3-11.7,2.8c-1.3-1.2-2.2-3.7-2.2-5.6c4.2-1.9,10.5-3.4,15.5-3.4
		c7.4,0,12.2,4,12.2,12.5v15.3c0,2.8,0.4,4.9,2.1,6.4C514.4,82,513.2,83.8,512,84.5z M505.2,74.4v-7.1c-2.2-0.2-4.6-0.3-6.7-0.3
		c-4.5,0-7.1,2.4-7.1,6.4c0,3.1,1.8,5.5,5,5.5C499.2,78.9,502.5,77.4,505.2,74.4z"/>
</g>
<g>
	<g>
		<path class="st1" d="M183.6,118.7c-1.9-2.1-2.9-5-2.9-8.3c0-3.4,1.2-6.5,3.3-8.6c1.8-1.8,4.4-2.9,7.5-2.9c5.6,0,9,3,9.7,7.6h-5.3
			c-0.4-1.8-1.9-3.1-4.3-3.1c-3.6,0-5.4,3-5.4,7c0,4,2.1,7,5.5,7c2.9,0,4.5-1.9,4.8-3.8v-0.1h-4.1v-4h9.1v11.8h-3.8l-0.3-2.6h-0.1
			c-1.4,2.2-3.6,3.1-6.2,3.1C188,121.8,185.4,120.7,183.6,118.7z"/>
	</g>
	<g>
		<path class="st1" d="M219.5,99.3H230c4.4,0,7.7,2.2,7.7,6.3c0,2.5-1.3,4.4-3.8,5.3v0.1c1.9,0.6,2.9,1.8,3.2,4
			c0.5,2.9,0.2,5.6,0.9,5.9v0.3h-5.3c-0.6-0.3-0.5-2.9-0.8-5.1c-0.3-2-1.3-3.1-3.7-3.1h-3.3v8.2h-5.4V99.3z M229,109
			c2.1,0,3.3-1,3.3-2.7c0-1.6-1-2.7-3.1-2.7h-4.2v5.4H229z"/>
	</g>
	<g>
		<path class="st1" d="M254.5,110.4c0-6.6,4.2-11.4,10.8-11.4c6.7,0,10.9,4.9,10.9,11.4c0,6.6-4.2,11.4-10.9,11.4
			C258.7,121.8,254.5,116.9,254.5,110.4z M270.7,110.4c0-4-1.7-7.1-5.3-7.1c-3.5,0-5.3,3.1-5.3,7.1c0,4,1.8,7,5.3,7
			C268.9,117.4,270.7,114.3,270.7,110.4z"/>
	</g>
	<g>
		<path class="st1" d="M293.5,113.5V99.3h5.4v14.4c0,2.1,1.1,3.6,3.8,3.6c2.5,0,3.7-1.5,3.7-3.7V99.3h5.4v14.2c0,5.1-3,8.1-9.1,8.1
			C296.6,121.7,293.5,118.7,293.5,113.5z"/>
	</g>
	<g>
		<path class="st1" d="M330.1,99.3h9.9c2.7,0,4.6,0.7,6,2c1.4,1.3,2.2,3.2,2.2,5.4c0,4.2-2.9,7.2-7.4,7.2h-5.1v7.3h-5.5V99.3z
			 M339.6,109.6c2,0,3.1-1.2,3.1-2.9c0-1.7-1.1-2.8-3.1-2.8h-4v5.7H339.6z"/>
	</g>
</g>
</svg>
